<?xml version="1.0" ?><svg id="Capa_1" style="enable-background:new 0 0 512 512;" version="1.1" viewBox="0 0 512 512" xml:space="preserve" xmlns="http://www.w3.org/2000/svg" xmlns:xlink="http://www.w3.org/1999/xlink"><g><path d="M468.8,322.7c-14.7-14.7-33.4-22.9-52.6-24.7c0.2-3.7,0.4-7.5,0.4-11.2c0-88.1-68.9-161.1-156.8-166   c-2.8-0.2-5.1,2-5.3,4.7c-0.2,2.8,2,5.1,4.7,5.3c82.6,4.6,147.3,73.2,147.3,156c0,3.6-0.1,7.3-0.4,10.9c-21.3,0.5-42.4,8.8-58.6,25   c-16.2,16.2-25.1,37.7-25.1,60.6s8.9,44.4,25.1,60.6c16.7,16.7,38.7,25.1,60.6,25.1c21.9,0,43.9-8.4,60.6-25.1   c16.2-16.2,25.1-37.7,25.1-60.6S485,338.8,468.8,322.7z M461.7,436.8c-29.5,29.5-77.5,29.5-107.1,0c-14.3-14.3-22.2-33.3-22.2-53.5   c0-20.2,7.9-39.2,22.2-53.5c14.3-14.3,33.3-22.2,53.5-22.2c20.2,0,39.2,7.9,53.5,22.2c14.3,14.3,22.2,33.3,22.2,53.5   S476,422.5,461.7,436.8z"/><path d="M435.5,385.5c15-15,15-39.5,0-54.6c-15-15-39.5-15-54.6,0c-15,15-15,39.5,0,54.6c6.3,6.3,14.1,9.9,22.3,11v14.6h-19.3   c-2.8,0-5,2.2-5,5s2.2,5,5,5h19.3v19.3c0,2.8,2.2,5,5,5s5-2.2,5-5v-19.3h19.3c2.8,0,5-2.2,5-5s-2.2-5-5-5h-19.3v-14.6   C421.3,395.4,429.2,391.8,435.5,385.5z M388,378.5c-11.1-11.1-11.1-29.3,0-40.4c5.6-5.6,12.9-8.4,20.2-8.4c7.3,0,14.6,2.8,20.2,8.4   c11.1,11.1,11.1,29.3,0,40.4C417.2,389.6,399.1,389.6,388,378.5z"/><path d="M185.3,241.4c-20.1,19.4-19.7,51.9,0.1,71.7l55,55c8,8,20.9,8,28.8,0l55-55c19.8-19.8,20.3-52.3,0.1-71.7   c-17.5-16.8-44.3-18.3-63.4-4.5c-3.6,2.6-8.6,2.6-12.1,0C229.6,223,202.8,224.5,185.3,241.4z M208,298.9c-5.5,0-10-4.5-10-10   s4.5-10,10-10s10,4.5,10,10S213.6,298.9,208,298.9z M301.6,278.9c5.5,0,10,4.5,10,10s-4.5,10-10,10s-10-4.5-10-10   S296.1,278.9,301.6,278.9z M254.8,278.9c5.5,0,10,4.5,10,10s-4.5,10-10,10c-5.5,0-10-4.5-10-10S249.3,278.9,254.8,278.9z"/><path d="M72.2,333.9c-2.6-1-5.5,0.3-6.5,2.9l-8.6,22.4c-18-47.7-17.6-99.7,1.3-147.8c1-2.6-0.3-5.5-2.8-6.5s-5.5,0.3-6.5,2.8   c-19.9,50.8-20.2,105.8-0.9,156.2l-23.3-8.9c-2.6-1-5.5,0.3-6.5,2.9c-1,2.6,0.3,5.5,2.9,6.5l34.1,13.1c0,0,0.1,0,0.1,0   c0.2,0.1,0.4,0.1,0.6,0.2c0.1,0,0.2,0,0.3,0.1c0.3,0,0.5,0.1,0.8,0.1c0,0,0,0,0,0c0,0,0,0,0,0s0,0,0,0c0.2,0,0.4,0,0.7-0.1   c0.1,0,0.1,0,0.2,0c0.2,0,0.4-0.1,0.6-0.1c0,0,0.1,0,0.1,0c0.2-0.1,0.4-0.1,0.5-0.2c0,0,0,0,0,0c0.3-0.1,0.5-0.3,0.8-0.4   c0.1,0,0.1-0.1,0.2-0.1c0.2-0.1,0.3-0.3,0.5-0.4c0.1-0.1,0.1-0.1,0.2-0.2c0.1-0.2,0.3-0.3,0.4-0.5c0-0.1,0.1-0.1,0.1-0.2   c0.2-0.3,0.3-0.5,0.4-0.8L75,340.3C76,337.8,74.7,334.9,72.2,333.9z"/><path d="M344.7,101.7l10.7,35c0.7,2.2,2.6,3.5,4.8,3.5c0.5,0,1-0.1,1.5-0.2c2.6-0.8,4.1-3.6,3.3-6.2l-7-22.9   c43.5,26.6,75.3,67.8,90,117.2c0.6,2.2,2.6,3.6,4.8,3.6c0.5,0,1-0.1,1.4-0.2c2.6-0.8,4.2-3.6,3.4-6.2   c-15.5-52.3-49.2-95.8-95.5-123.6l23.8-7.3c2.6-0.8,4.1-3.6,3.3-6.2c-0.8-2.6-3.6-4.1-6.2-3.3l-35,10.7c0,0,0,0,0,0   c-0.3,0.1-0.6,0.2-0.9,0.4c-0.1,0.1-0.2,0.2-0.4,0.2c-0.2,0.1-0.3,0.2-0.4,0.3c-0.1,0.1-0.2,0.2-0.4,0.4c-0.1,0.1-0.2,0.2-0.3,0.3   c-0.2,0.2-0.4,0.5-0.5,0.8c0,0,0,0,0,0c0,0,0,0,0,0.1c-0.1,0.3-0.3,0.6-0.4,0.9c0,0.1-0.1,0.3-0.1,0.4c0,0.2-0.1,0.3-0.1,0.5   c0,0.2,0,0.4,0,0.5c0,0.1,0,0.3,0,0.4C344.5,101,344.6,101.4,344.7,101.7z"/><path d="M174.6,146.5c0-8.8-3-17-8-23.5l21.9-21.9l-1.3,9.6c-0.4,2.7,1.6,5.3,4.3,5.6c0.2,0,0.4,0,0.7,0c2.5,0,4.6-1.8,4.9-4.3   l3.2-24.2c0.2-1.5-0.3-3.1-1.4-4.2c-1.1-1.1-2.7-1.6-4.2-1.4l-24.2,3.2c-2.7,0.4-4.7,2.9-4.3,5.6c0.4,2.7,2.9,4.7,5.6,4.3l9.6-1.3   l-21.9,21.9c-6.5-5-14.7-8-23.5-8c-21.3,0-38.6,17.3-38.6,38.6s17.3,38.6,38.6,38.6S174.6,167.8,174.6,146.5z M136,175.1   c-15.8,0-28.6-12.8-28.6-28.6s12.8-28.6,28.6-28.6s28.6,12.8,28.6,28.6S151.8,175.1,136,175.1z"/><path d="M313.5,429.7c-20,8.9-41.3,13.3-63.3,13.3c-24.3,0-47.6-5.4-69.2-16.1c-3.6-1.8-7.6-2-11.4-0.8l-79.1,26.7   c-1.8,0.6-3.8,0.2-5.1-1.2s-1.8-3.3-1.2-5.1l26.7-79.1c1.3-3.8,1-7.8-0.8-11.4C99.4,334.3,94,311,94,286.7   c0-28.6,7.8-56.5,22.5-80.8c11.3,5.5,23.9,8.5,37.2,8.5c47.3,0,85.7-38.4,85.7-85.7S201,43.1,153.7,43.1S68,81.5,68,128.8   c0,30.3,15.9,57,39.7,72.3C92.2,226.9,84,256.4,84,286.7c0,25.8,5.8,50.6,17.2,73.6c0.6,1.2,0.7,2.5,0.2,3.8l-26.7,79.1   c-1.8,5.4-0.4,11.3,3.6,15.4c2.9,2.9,6.7,4.4,10.6,4.4c1.6,0,3.2-0.3,4.8-0.8l79.1-26.7c1.3-0.4,2.6-0.3,3.8,0.2   c23,11.4,47.8,17.2,73.6,17.2c23.4,0,46.1-4.8,67.3-14.2c2.5-1.1,3.7-4.1,2.5-6.6C319,429.7,316.1,428.5,313.5,429.7z M78,128.8   c0-41.7,34-75.7,75.7-75.7s75.7,34,75.7,75.7s-34,75.7-75.7,75.7S78,170.5,78,128.8z"/></g></svg>