<?xml version="1.0" ?><svg id="Capa_1" style="enable-background:new 0 0 512 512;" version="1.1" viewBox="0 0 512 512" xml:space="preserve" xmlns="http://www.w3.org/2000/svg" xmlns:xlink="http://www.w3.org/1999/xlink"><g><circle cx="256" cy="347.1" r="10"/><circle cx="256" cy="381.8" r="10"/><circle cx="256" cy="416.5" r="10"/><path d="M337.2,282.9h-4.1c-0.2-4.6-2.5-8.8-6.2-11.5c-3.9-2.8-9-3.6-13.6-2l-23.6,8v-17.1c8.3-6.1,16.1-14.6,22.9-25.1   c14.3-22,22.6-50,22.6-76.7c0-5.9-0.4-11.6-1.2-17c5.4-4.7,16.3-14.8,22.8-24.5c0.9-1.3,1.1-3,0.5-4.5   c-5.4-14.7-13.5-27.6-24.1-38.3c-19.8-20-47.2-31.1-77.3-31.1s-57.5,11-77.3,31.1C158,95.2,147,124.4,147,158.5c0,1.6,0.7,3,2,4   c7.3,5.6,18.5,6.7,26.2,6.7c0.7,0,1.4,0,2.1,0c2.9,35.4,20.1,72.6,45,91.1v17.2l-23.6-8c-4.6-1.6-9.6-0.8-13.6,2   c-3.7,2.7-6,6.9-6.2,11.5h-4.1c-33.8,0-61.4,27.5-61.4,61.4v119.6c0,2.8,2.2,5,5,5s5-2.2,5-5V344.2c0-14.1,5.7-26.8,14.9-36.1   l26,54.8v101c0,2.8,2.2,5,5,5s5-2.2,5-5v-80l38.9,82.1c0.9,1.8,2.6,2.9,4.5,2.9l17.6,0c0.4,0,0.8,0,1.2-0.1c2.7-0.6,4.3-3.3,3.7-6   l-34.4-143.1l34.3-11.7c3.7,4.7,9.4,7.8,15.8,7.8s12.2-3.1,15.8-7.8l34.3,11.7l-34.4,143.1c-0.6,2.7,1,5.4,3.7,6   c0.4,0.1,0.8,0.1,1.2,0.1l17.6,0c1.9,0,3.7-1.1,4.5-2.9l38.8-81.8v79.6c0,2.8,2.2,5,5,5s5-2.2,5-5V363.2l26.1-55.1   c9.2,9.3,14.9,22.1,14.9,36.2v119.6c0,2.8,2.2,5,5,5s5-2.2,5-5V344.2C398.5,310.4,371,282.9,337.2,282.9z M209,231.7   c-12.3-17.9-20.1-40.9-21.9-63.6c18.9-3.7,36.2-13.6,49-28.2c1.8-2.1,1.6-5.2-0.5-7.1c-2.1-1.8-5.2-1.6-7.1,0.5   c-12.2,14-29,23.1-47.3,25.6c-9.8,0.9-18.9-0.3-24.3-3.1c0.6-30.2,10.5-56,28.8-74.6c17.9-18.1,42.8-28.1,70.1-28.1   s52.3,10,70.1,28.1c9,9.1,16,20,20.9,32.3c-5.5,7.5-14.4,16.1-21.3,22c-12.8,8.5-27.7,13-43.1,13c-10.7,0-21.1-2.1-30.9-6.3   c-2.5-1.1-5.5,0.1-6.6,2.6c-1.1,2.5,0.1,5.5,2.6,6.6c11,4.7,22.7,7.2,34.8,7.2c14.8,0,29.3-3.7,42.2-10.7c0.3,3.5,0.5,7.1,0.5,10.8   c0,47.9-30.3,103.7-69.3,103.7C239.1,262.2,222.4,251.4,209,231.7z M195.4,312.6c-1.5,0.5-3.2,0.3-4.5-0.7c-1.3-1-2.1-2.4-2.1-4.1   v-24.2c0-1.6,0.8-3.1,2.1-4.1c1.3-1,3-1.2,4.5-0.7l34.8,11.9h-21.9c-2.8,0-5,2.2-5,5s2.2,5,5,5h21.9L195.4,312.6z M279.8,280.8   l-7.9,2.7c-3.7-4.7-9.4-7.8-15.8-7.8s-12.2,3.1-15.8,7.8l-7.9-2.7v-14.4c7.4,3.7,15.4,5.8,23.8,5.8c8.1,0,16.1-2,23.8-5.8V280.8z    M281.8,300.7h21.9c2.8,0,5-2.2,5-5s-2.2-5-5-5h-21.9l34.8-11.9c1.5-0.5,3.2-0.3,4.5,0.7c1.3,1,2.1,2.4,2.1,4.1v24.2   c0,1.6-0.8,3.1-2.1,4.1c-1.3,1-3,1.2-4.5,0.7L281.8,300.7z"/><path d="M287.3,193.1c7.4,0,14.8-2.8,20.5-8.5c2-2,2-5.1,0-7.1c-2-2-5.1-2-7.1,0c-7.4,7.4-19.4,7.4-26.8,0c-2-2-5.1-2-7.1,0   c-2,2-2,5.1,0,7.1C272.5,190.3,279.9,193.1,287.3,193.1z"/><path d="M276.5,229c2-2,2-5.1,0-7.1c-2-2-5.1-2-7.1,0c-7.4,7.4-19.4,7.4-26.8,0c-2-2-5.1-2-7.1,0c-2,2-2,5.1,0,7.1   c5.6,5.6,13,8.5,20.5,8.5S270.8,234.6,276.5,229z"/><path d="M245.2,177.6c-2-2-5.1-2-7.1,0c-7.4,7.4-19.4,7.4-26.8,0c-2-2-5.1-2-7.1,0c-2,2-2,5.1,0,7.1c5.6,5.6,13,8.5,20.5,8.5   c7.4,0,14.8-2.8,20.5-8.5C247.1,182.7,247.1,179.5,245.2,177.6z"/></g></svg>